<svg width="33" height="37" viewBox="0 0 33 37" fill="none" xmlns="http://www.w3.org/2000/svg">
<path d="M31.9468 0H9.47872C9.1994 0 8.93152 0.124411 8.734 0.345863C8.53649 0.567316 8.42553 0.86767 8.42553 1.18085V9.44681H1.05319C0.773868 9.44681 0.505984 9.57122 0.308473 9.79267C0.110961 10.0141 0 10.3145 0 10.6277V35.8191C0 36.1323 0.110961 36.4327 0.308473 36.6541C0.505984 36.8756 0.773868 37 1.05319 37H23.5213C23.8006 37 24.0685 36.8756 24.266 36.6541C24.4635 36.4327 24.5745 36.1323 24.5745 35.8191V27.5532H31.9468C32.2261 27.5532 32.494 27.4288 32.6915 27.2073C32.889 26.9859 33 26.6855 33 26.3723V1.18085C33 0.86767 32.889 0.567316 32.6915 0.345863C32.494 0.124411 32.2261 0 31.9468 0ZM22.4681 34.6383H2.10638V11.8085H22.4681V34.6383ZM30.8936 25.1915H24.5745V10.6277C24.5745 10.3145 24.4635 10.0141 24.266 9.79267C24.0685 9.57122 23.8006 9.44681 23.5213 9.44681H10.5319V2.3617H30.8936V25.1915Z" fill="black"/>
</svg>
