<svg width="49" height="44" viewBox="0 0 49 44" fill="none" xmlns="http://www.w3.org/2000/svg">
<path d="M47.075 15.048C45.8452 12.1204 44.0622 9.46059 41.825 7.216C39.5932 4.966 36.9485 3.17286 34.0375 1.936C31.0133 0.649 27.8086 0 24.5 0C21.1914 0 17.9867 0.649 14.9625 1.936C12.0515 3.17286 9.40683 4.966 7.175 7.216C4.93778 9.46059 3.15484 12.1204 1.925 15.048C0.645312 18.0895 0 21.3125 0 24.64C0 31.9385 3.18828 38.8135 8.74453 43.5105L8.8375 43.5875C9.15469 43.8515 9.55391 44 9.96406 44H39.0414C39.4516 44 39.8508 43.8515 40.168 43.5875L40.2609 43.5105C45.8117 38.8135 49 31.9385 49 24.64C49 21.3125 48.3492 18.0895 47.075 15.048ZM38.1391 39.82H10.8609C8.74779 37.9038 7.05889 35.5621 5.90383 32.9469C4.74876 30.3318 4.15336 27.5016 4.15625 24.64C4.15625 19.173 6.27266 14.036 10.1172 10.175C13.9617 6.3085 19.0695 4.18 24.5 4.18C29.9359 4.18 35.0438 6.3085 38.8828 10.175C42.7273 14.0415 44.8438 19.1785 44.8438 24.64C44.8438 30.448 42.4102 35.9425 38.1391 39.82ZM30.5977 17.0225C30.5154 16.9406 30.4044 16.8947 30.2887 16.8947C30.173 16.8947 30.0619 16.9406 29.9797 17.0225L25.3586 21.67C24.3359 21.395 23.2039 21.659 22.4 22.4675C22.1153 22.7533 21.8894 23.0928 21.7352 23.4665C21.5811 23.8403 21.5018 24.2409 21.5018 24.6455C21.5018 25.0501 21.5811 25.4507 21.7352 25.8245C21.8894 26.1982 22.1153 26.5377 22.4 26.8235C22.6842 27.1099 23.0218 27.3371 23.3934 27.4921C23.765 27.6471 24.1633 27.7269 24.5656 27.7269C24.9679 27.7269 25.3663 27.6471 25.7379 27.4921C26.1095 27.3371 26.447 27.1099 26.7312 26.8235C27.1121 26.4416 27.386 25.9654 27.5253 25.4429C27.6645 24.9204 27.6641 24.3703 27.5242 23.848L32.1453 19.2005C32.3148 19.03 32.3148 18.7495 32.1453 18.579L30.5977 17.0225ZM23.2969 11.44H25.7031C25.9438 11.44 26.1406 11.242 26.1406 11V6.6C26.1406 6.358 25.9438 6.16 25.7031 6.16H23.2969C23.0562 6.16 22.8594 6.358 22.8594 6.6V11C22.8594 11.242 23.0562 11.44 23.2969 11.44ZM37.5156 23.43V25.85C37.5156 26.092 37.7125 26.29 37.9531 26.29H42.3281C42.5687 26.29 42.7656 26.092 42.7656 25.85V23.43C42.7656 23.188 42.5687 22.99 42.3281 22.99H37.9531C37.7125 22.99 37.5156 23.188 37.5156 23.43ZM38.2102 12.584L36.5094 10.8735C36.4271 10.7916 36.3161 10.7457 36.2004 10.7457C36.0847 10.7457 35.9736 10.7916 35.8914 10.8735L32.7961 13.9865C32.7147 14.0692 32.669 14.1809 32.669 14.2973C32.669 14.4136 32.7147 14.5253 32.7961 14.608L34.4969 16.3185C34.6664 16.489 34.9453 16.489 35.1148 16.3185L38.2102 13.2055C38.3797 13.035 38.3797 12.7545 38.2102 12.584ZM13.1305 10.8735C13.0482 10.7916 12.9372 10.7457 12.8215 10.7457C12.7058 10.7457 12.5947 10.7916 12.5125 10.8735L10.8117 12.584C10.7303 12.6667 10.6846 12.7784 10.6846 12.8948C10.6846 13.0111 10.7303 13.1228 10.8117 13.2055L13.907 16.3185C14.0766 16.489 14.3555 16.489 14.525 16.3185L16.2258 14.608C16.3953 14.4375 16.3953 14.157 16.2258 13.9865L13.1305 10.8735ZM10.8281 22.99H6.45312C6.2125 22.99 6.01562 23.188 6.01562 23.43V25.85C6.01562 26.092 6.2125 26.29 6.45312 26.29H10.8281C11.0687 26.29 11.2656 26.092 11.2656 25.85V23.43C11.2656 23.188 11.0687 22.99 10.8281 22.99Z" fill="black"/>
</svg>
