<svg width="43" height="40" viewBox="0 0 43 40" fill="none" xmlns="http://www.w3.org/2000/svg">
<path fill-rule="evenodd" clip-rule="evenodd" d="M37.1364 4H5.86364C5.34526 4 4.84811 4.21071 4.48156 4.58579C4.11502 4.96086 3.90909 5.46957 3.90909 6V34C3.90909 34.5304 4.11502 35.0391 4.48156 35.4142C4.84811 35.7893 5.34526 36 5.86364 36H37.1364C37.6547 36 38.1519 35.7893 38.5184 35.4142C38.885 35.0391 39.0909 34.5304 39.0909 34V6C39.0909 5.46957 38.885 4.96086 38.5184 4.58579C38.1519 4.21071 37.6547 4 37.1364 4ZM5.86364 0C4.3085 0 2.81706 0.632141 1.71742 1.75736C0.617774 2.88258 0 4.4087 0 6V34C0 35.5913 0.617774 37.1174 1.71742 38.2426C2.81706 39.3679 4.3085 40 5.86364 40H37.1364C38.6915 40 40.1829 39.3679 41.2826 38.2426C42.3822 37.1174 43 35.5913 43 34V6C43 4.4087 42.3822 2.88258 41.2826 1.75736C40.1829 0.632141 38.6915 0 37.1364 0H5.86364ZM9.77273 10H13.6818V14H9.77273V10ZM19.5455 10C19.0271 10 18.5299 10.2107 18.1634 10.5858C17.7968 10.9609 17.5909 11.4696 17.5909 12C17.5909 12.5304 17.7968 13.0391 18.1634 13.4142C18.5299 13.7893 19.0271 14 19.5455 14H31.2727C31.7911 14 32.2883 13.7893 32.6548 13.4142C33.0214 13.0391 33.2273 12.5304 33.2273 12C33.2273 11.4696 33.0214 10.9609 32.6548 10.5858C32.2883 10.2107 31.7911 10 31.2727 10H19.5455ZM13.6818 18H9.77273V22H13.6818V18ZM17.5909 20C17.5909 19.4696 17.7968 18.9609 18.1634 18.5858C18.5299 18.2107 19.0271 18 19.5455 18H31.2727C31.7911 18 32.2883 18.2107 32.6548 18.5858C33.0214 18.9609 33.2273 19.4696 33.2273 20C33.2273 20.5304 33.0214 21.0391 32.6548 21.4142C32.2883 21.7893 31.7911 22 31.2727 22H19.5455C19.0271 22 18.5299 21.7893 18.1634 21.4142C17.7968 21.0391 17.5909 20.5304 17.5909 20ZM13.6818 26H9.77273V30H13.6818V26ZM17.5909 28C17.5909 27.4696 17.7968 26.9609 18.1634 26.5858C18.5299 26.2107 19.0271 26 19.5455 26H31.2727C31.7911 26 32.2883 26.2107 32.6548 26.5858C33.0214 26.9609 33.2273 27.4696 33.2273 28C33.2273 28.5304 33.0214 29.0391 32.6548 29.4142C32.2883 29.7893 31.7911 30 31.2727 30H19.5455C19.0271 30 18.5299 29.7893 18.1634 29.4142C17.7968 29.0391 17.5909 28.5304 17.5909 28Z" fill="black"/>
</svg>
