<svg width="92" height="92" viewBox="0 0 92 92" fill="none" xmlns="http://www.w3.org/2000/svg">
<path d="M92 45.954C92 20.585 71.392 0 46 0C20.608 0 0 20.585 0 45.954C0 59.9265 6.348 72.519 16.284 80.9715C16.376 81.0635 16.468 81.0635 16.468 81.1555C17.296 81.7995 18.124 82.4435 19.044 83.0875C19.504 83.3635 19.872 83.7258 20.332 84.0938C27.9339 89.2479 36.9076 92.0021 46.092 92C55.2764 92.0021 64.2501 89.2479 71.852 84.0938C72.312 83.8177 72.68 83.4555 73.14 83.1738C73.968 82.5355 74.888 81.8915 75.716 81.2475C75.808 81.1555 75.9 81.1555 75.9 81.0635C85.652 72.5132 92 59.9265 92 45.954ZM46 86.2097C37.352 86.2097 29.44 83.4497 22.908 78.8555C23 78.1195 23.184 77.3893 23.368 76.6533C23.9162 74.6586 24.7202 72.7433 25.76 70.955C26.772 69.207 27.968 67.643 29.44 66.263C30.82 64.883 32.476 63.6007 34.132 62.5888C35.88 61.5768 37.72 60.8407 39.744 60.2887C41.7837 59.739 43.8875 59.4625 46 59.4665C52.2712 59.4221 58.3121 61.8277 62.836 66.171C64.952 68.287 66.608 70.771 67.804 73.6173C68.448 75.2733 68.908 77.0212 69.184 78.8555C62.3943 83.6289 54.2997 86.1966 46 86.2097ZM31.924 43.6597C31.1134 41.8038 30.7057 39.7969 30.728 37.7717C30.728 35.7535 31.096 33.7295 31.924 31.8895C32.752 30.0495 33.856 28.3993 35.236 27.0192C36.616 25.6392 38.272 24.541 40.112 23.713C41.952 22.885 43.976 22.517 46 22.517C48.116 22.517 50.048 22.885 51.888 23.713C53.728 24.541 55.384 25.645 56.764 27.0192C58.144 28.3993 59.248 30.0553 60.076 31.8895C60.904 33.7295 61.272 35.7535 61.272 37.7717C61.272 39.8877 60.904 41.8198 60.076 43.654C59.2769 45.4668 58.1546 47.119 56.764 48.53C55.3525 49.9186 53.7003 51.0389 51.888 51.8363C48.0863 53.3986 43.8217 53.3986 40.02 51.8363C38.2077 51.0389 36.5555 49.9186 35.144 48.53C33.7514 47.1396 32.6559 45.4864 31.924 43.6597ZM74.612 74.1693C74.612 73.9853 74.52 73.8932 74.52 73.7093C73.6152 70.8309 72.2815 68.1054 70.564 65.6247C68.8449 63.1257 66.7322 60.9217 64.308 59.0985C62.4566 57.7057 60.4499 56.5325 58.328 55.6025C59.2933 54.9657 60.1877 54.2274 60.996 53.4002C62.3676 52.0461 63.5722 50.5327 64.584 48.8923C66.6216 45.5447 67.6738 41.6903 67.62 37.7717C67.6485 34.871 67.085 31.9948 65.964 29.3193C64.8572 26.7412 63.2642 24.4004 61.272 22.425C59.2827 20.4702 56.9416 18.9094 54.372 17.825C51.692 16.706 48.8121 16.1445 45.908 16.1747C43.0035 16.1463 40.1236 16.7098 37.444 17.8307C34.8522 18.9128 32.5054 20.5067 30.544 22.517C28.5892 24.5041 27.0284 26.8434 25.944 29.4112C24.823 32.0868 24.2595 34.963 24.288 37.8638C24.288 39.8877 24.564 41.8198 25.116 43.654C25.668 45.586 26.404 47.334 27.416 48.9842C28.336 50.6403 29.624 52.1123 31.004 53.4923C31.832 54.3203 32.752 55.0505 33.764 55.6945C31.6356 56.6493 29.6281 57.8538 27.784 59.2825C25.392 61.1225 23.276 63.3247 21.528 65.7168C19.793 68.1871 18.458 70.9154 17.572 73.8012C17.48 73.9853 17.48 74.1693 17.48 74.2613C10.212 66.907 5.704 56.9825 5.704 45.954C5.704 23.805 23.828 5.69825 46 5.69825C68.172 5.69825 86.296 23.805 86.296 45.954C86.284 56.5338 82.0831 66.6783 74.612 74.1693Z" fill="black"/>
</svg>
